<?xml version="1.0" encoding="iso-8859-1"?>
<!-- Generator: Adobe Illustrator 19.0.0, SVG Export Plug-In . SVG Version: 6.00 Build 0)  -->
<svg version="1.1" id="Capa_1" xmlns="http://www.w3.org/2000/svg" xmlns:xlink="http://www.w3.org/1999/xlink" x="0px" y="0px"
	 viewBox="0 0 479.536 479.536" style="enable-background:new 0 0 479.536 479.536;" xml:space="preserve">
<g>
	<g>
		<path d="M475.804,336.286c-0.5-2.7-1.1-5.5-2-8.2c-8.6-24-33.2-38.4-58.3-34.1c-8.3,1.3-16.1-4.4-17.4-12.7l-12.6-80.8
			c-10.5-68.5-60-124.6-126.6-143.4c-6.1-37.1-41-62.2-78.1-56.2c-36.6,6-61.7,40.2-56.4,76.9c-57.4,36.3-87.8,103.3-77.1,170.5
			l13.6,86.1c1.2,8.3-4.4,16.1-12.7,17.4c-25.2,3.6-44.2,24.8-45.1,50.3c-0.3,28.3,22.4,51.4,50.7,51.7c0.2,0,0.4,0,0.5,0
			c2.7,0,5.3-0.2,8-0.6l52.5-8.3c18.3,32.6,59.5,44.3,92.2,26c17.2-9.7,29.4-26.3,33.3-45.7l192.9-30.4
			C461.104,390.386,480.204,364.186,475.804,336.286z M173.704,445.486c-7.2,0-14.3-2.3-20.1-6.6l47.8-7.5
			C195.004,440.286,184.704,445.486,173.704,445.486z M219.704,51.386c-6.4-0.2-12.7,0-19.1,0.5c-6.7,0.6-13.3,1.7-19.9,3.1
			c-1.4,0.3-2.8,0.7-4.2,1c-5.4,1.3-10.6,2.7-15.8,4.5c-0.5,0.1-1.1,0.2-1.6,0.4c3.6-12.9,14.4-22.5,27.6-24.5
			c1.8-0.3,3.6-0.4,5.4-0.4c11.4,0.1,22.1,5.8,28.4,15.4H219.704z"/>
	</g>
</g>
<g>
</g>
<g>
</g>
<g>
</g>
<g>
</g>
<g>
</g>
<g>
</g>
<g>
</g>
<g>
</g>
<g>
</g>
<g>
</g>
<g>
</g>
<g>
</g>
<g>
</g>
<g>
</g>
<g>
</g>
</svg>
