<svg height="512pt" viewBox="0 0 512 512" width="512pt" xmlns="http://www.w3.org/2000/svg"><path d="m492 407.644531v-53.328125c12.265625-10.996094 20-26.945312 20-44.671875 0-17.75-7.753906-33.714843-20.039062-44.710937-.84375-69.367188-20.359376-123.691406-58.066407-161.503906-39.96875-40.085938-99.445312-60.539063-176.773437-60.785157-.46875 0-.933594 0-1.402344 0-60.15625 0-109.542969 12.441407-147.382812 37.050781l-79.695313-79.695312-28.28125 28.285156 483 483 28.28125-28.285156-35.15625-35.15625c9.632813-10.644531 15.515625-24.746094 15.515625-40.199219zm-40 0c0 4.421875-1.460938 8.5-3.898438 11.8125l-49.816406-49.8125h53.714844zm-75.074219-118s-11.96875 10.167969-18.570312 15.921875c-4.347657 3.792969-8.652344 7.585938-12.84375 11.304688l-27.226563-27.226563zm95.074219 20c0 11.027344-8.972656 20-20 20h-60.347656c34.667968-29.875 47.253906-37.890625 51.234375-40h9.113281c11.027344 0 20 8.96875 20 20zm-215.007812-227c66.359374.210938 116.351562 16.707031 148.582031 49.03125 27.328125 27.40625 42.707031 67.027344 45.828125 117.96875h-173.117188l-140.835937-140.835937c30.695312-17.53125 70.707031-26.324219 119.542969-26.164063zm-175.992188 345c-11.027344 0-20-8.972656-20-20v-38h224.214844l-120-120h-103.617188c1.984375-32.246093 8.898438-59.972656 20.65625-82.964843l-29.429687-29.429688c-20.382813 33.953125-31.046875 76.402344-31.773438 126.8125-12.871093 11.011719-21.050781 27.355469-21.050781 45.582031 0 18.203125 8.160156 34.527344 21 45.539063v52.460937c0 33.082031 26.914062 60 60 60h302.214844l-40-40zm-41-118c0-11.03125 8.972656-20 20-20h22.535156c9.351563 1.035157 53.464844 9 108.5 40h-131.035156c-11.027344 0-20-8.972656-20-20zm263-159c0-11.046875 8.953125-20 20-20s20 8.953125 20 20c0 11.042969-8.953125 20-20 20s-20-8.957031-20-20zm62 37c0-11.046875 8.953125-20 20-20s20 8.953125 20 20c0 11.042969-8.953125 20-20 20s-20-8.957031-20-20zm0 0"/></svg>